{
	"asset":{
		"generator":"Khronos glTF Blender I/O v5.0.21",
		"version":"2.0"
	},
	"scene":0,
	"scenes":[
		{
			"name":"Scene",
			"nodes":[
				14
			]
		}
	],
	"nodes":[
		{
			"mesh":0,
			"name":"BasePart_BackPart_0"
		},
		{
			"children":[
				0
			],
			"name":"BasePart",
			"translation":[
				0,
				0,
				-0.028266549110412598
			]
		},
		{
			"mesh":1,
			"name":"Buttons_FrontPart_0"
		},
		{
			"children":[
				2
			],
			"name":"Buttons"
		},
		{
			"mesh":2,
			"name":"Frames_FrontPart_0"
		},
		{
			"children":[
				4
			],
			"name":"Frames"
		},
		{
			"mesh":3,
			"name":"FrontPart_FrontPart_0"
		},
		{
			"mesh":4,
			"name":"Pin_BackPart_0"
		},
		{
			"children":[
				7
			],
			"name":"Pin",
			"translation":[
				0.06965593993663788,
				-0.16343297064304352,
				-0.01803639531135559
			]
		},
		{
			"mesh":5,
			"name":"Screen_Screen_0"
		},
		{
			"children":[
				9
			],
			"name":"Screen"
		},
		{
			"children":[
				1,
				3,
				5,
				6,
				8,
				10
			],
			"name":"FrontPart",
			"rotation":[
				-0.70710688829422,
				0,
				0,
				0.7071066498756409
			],
			"scale":[
				100,
				99.99999237060547,
				99.99999237060547
			]
		},
		{
			"children":[
				11
			],
			"name":"RootNode"
		},
		{
			"children":[
				12
			],
			"name":"ac2f7131daf24de780e036956f470c26.fbx",
			"rotation":[
				0.70710688829422,
				0,
				0,
				0.7071066498756409
			],
			"scale":[
				0.009999999776482582,
				0.010000000707805157,
				0.010000000707805157
			]
		},
		{
			"children":[
				13
			],
			"name":"Sketchfab_model"
		}
	],
	"materials":[
		{
			"doubleSided":true,
			"name":"BackPart",
			"normalTexture":{
				"index":0
			},
			"occlusionTexture":{
				"index":1
			},
			"pbrMetallicRoughness":{
				"baseColorTexture":{
					"index":2
				},
				"metallicRoughnessTexture":{
					"index":1
				}
			}
		},
		{
			"doubleSided":true,
			"name":"FrontPart",
			"normalTexture":{
				"index":3
			},
			"occlusionTexture":{
				"index":4
			},
			"pbrMetallicRoughness":{
				"baseColorTexture":{
					"index":5
				},
				"metallicRoughnessTexture":{
					"index":4
				}
			}
		},
		{
			"doubleSided":true,
			"name":"Screen",
			"pbrMetallicRoughness":{
				"baseColorFactor":[
					0.15426279604434967,
					0.15426279604434967,
					0.15426279604434967,
					1
				],
				"metallicFactor":0.5165730118751526,
				"roughnessFactor":0.05942875146865845
			}
		}
	],
	"meshes":[
		{
			"name":"BasePart_BackPart_0",
			"primitives":[
				{
					"attributes":{
						"POSITION":0,
						"NORMAL":1,
						"TEXCOORD_0":2,
						"TEXCOORD_1":3,
						"TEXCOORD_2":4,
						"TEXCOORD_3":5
					},
					"indices":6,
					"material":0
				}
			]
		},
		{
			"name":"Buttons_FrontPart_0",
			"primitives":[
				{
					"attributes":{
						"POSITION":7,
						"NORMAL":8,
						"TEXCOORD_0":9,
						"TEXCOORD_1":10,
						"TEXCOORD_2":11,
						"TEXCOORD_3":12
					},
					"indices":13,
					"material":1
				}
			]
		},
		{
			"name":"Frames_FrontPart_0",
			"primitives":[
				{
					"attributes":{
						"POSITION":14,
						"NORMAL":15,
						"TEXCOORD_0":16,
						"TEXCOORD_1":17,
						"TEXCOORD_2":18,
						"TEXCOORD_3":19
					},
					"indices":20,
					"material":1
				}
			]
		},
		{
			"name":"FrontPart_FrontPart_0",
			"primitives":[
				{
					"attributes":{
						"POSITION":21,
						"NORMAL":22,
						"TEXCOORD_0":23,
						"TEXCOORD_1":24,
						"TEXCOORD_2":25,
						"TEXCOORD_3":26
					},
					"indices":27,
					"material":1
				}
			]
		},
		{
			"name":"Pin_BackPart_0",
			"primitives":[
				{
					"attributes":{
						"POSITION":28,
						"NORMAL":29,
						"TEXCOORD_0":30,
						"TEXCOORD_1":31,
						"TEXCOORD_2":32,
						"TEXCOORD_3":33
					},
					"indices":34,
					"material":0
				}
			]
		},
		{
			"name":"Screen_Screen_0",
			"primitives":[
				{
					"attributes":{
						"POSITION":35,
						"NORMAL":36,
						"TEXCOORD_0":37
					},
					"indices":38,
					"material":2
				}
			]
		}
	],
	"textures":[
		{
			"sampler":0,
			"source":0
		},
		{
			"sampler":0,
			"source":1
		},
		{
			"sampler":0,
			"source":2
		},
		{
			"sampler":0,
			"source":3
		},
		{
			"sampler":0,
			"source":4
		},
		{
			"sampler":0,
			"source":5
		}
	],
	"images":[
		{
			"mimeType":"image/png",
			"name":"BackPart_normal",
			"uri":"BackPart_normal.png"
		},
		{
			"mimeType":"image/png",
			"name":"BackPart_metallicRoughness",
			"uri":"BackPart_metallicRoughness.png"
		},
		{
			"mimeType":"image/jpeg",
			"name":"BackPart_baseColor",
			"uri":"BackPart_baseColor.jpg"
		},
		{
			"mimeType":"image/png",
			"name":"FrontPart_normal",
			"uri":"FrontPart_normal.png"
		},
		{
			"mimeType":"image/png",
			"name":"FrontPart_metallicRoughness",
			"uri":"FrontPart_metallicRoughness.png"
		},
		{
			"mimeType":"image/jpeg",
			"name":"FrontPart_baseColor",
			"uri":"FrontPart_baseColor.jpg"
		}
	],
	"accessors":[
		{
			"bufferView":0,
			"componentType":5126,
			"count":10581,
			"max":[
				0.5931157469749451,
				0.3555107116699219,
				0.10000000149011612
			],
			"min":[
				-0.5931157469749451,
				-0.3555107116699219,
				-2.6604247693740035e-08
			],
			"type":"VEC3"
		},
		{
			"bufferView":1,
			"componentType":5126,
			"count":10581,
			"type":"VEC3"
		},
		{
			"bufferView":2,
			"componentType":5126,
			"count":10581,
			"type":"VEC2"
		},
		{
			"bufferView":3,
			"componentType":5126,
			"count":10581,
			"type":"VEC2"
		},
		{
			"bufferView":4,
			"componentType":5126,
			"count":10581,
			"type":"VEC2"
		},
		{
			"bufferView":5,
			"componentType":5126,
			"count":10581,
			"type":"VEC2"
		},
		{
			"bufferView":6,
			"componentType":5123,
			"count":21492,
			"type":"SCALAR"
		},
		{
			"bufferView":7,
			"componentType":5126,
			"count":2514,
			"max":[
				0.5148455500602722,
				0.25640973448753357,
				0.08611798286437988
			],
			"min":[
				-0.47127535939216614,
				-0.2674234211444855,
				0.05470569059252739
			],
			"type":"VEC3"
		},
		{
			"bufferView":8,
			"componentType":5126,
			"count":2514,
			"type":"VEC3"
		},
		{
			"bufferView":9,
			"componentType":5126,
			"count":2514,
			"type":"VEC2"
		},
		{
			"bufferView":10,
			"componentType":5126,
			"count":2514,
			"type":"VEC2"
		},
		{
			"bufferView":11,
			"componentType":5126,
			"count":2514,
			"type":"VEC2"
		},
		{
			"bufferView":12,
			"componentType":5126,
			"count":2514,
			"type":"VEC2"
		},
		{
			"bufferView":13,
			"componentType":5123,
			"count":10128,
			"type":"SCALAR"
		},
		{
			"bufferView":14,
			"componentType":5126,
			"count":5532,
			"max":[
				0.4825577437877655,
				0.26689594984054565,
				0.10168437659740448
			],
			"min":[
				-0.4825577437877655,
				-0.2787058353424072,
				0.06999999284744263
			],
			"type":"VEC3"
		},
		{
			"bufferView":15,
			"componentType":5126,
			"count":5532,
			"type":"VEC3"
		},
		{
			"bufferView":16,
			"componentType":5126,
			"count":5532,
			"type":"VEC2"
		},
		{
			"bufferView":17,
			"componentType":5126,
			"count":5532,
			"type":"VEC2"
		},
		{
			"bufferView":18,
			"componentType":5126,
			"count":5532,
			"type":"VEC2"
		},
		{
			"bufferView":19,
			"componentType":5126,
			"count":5532,
			"type":"VEC2"
		},
		{
			"bufferView":20,
			"componentType":5123,
			"count":15444,
			"type":"SCALAR"
		},
		{
			"bufferView":21,
			"componentType":5126,
			"count":1992,
			"max":[
				0.5600000023841858,
				0.30997079610824585,
				0.1000000387430191
			],
			"min":[
				-0.5600000023841858,
				-0.31219303607940674,
				0.05470569059252739
			],
			"type":"VEC3"
		},
		{
			"bufferView":22,
			"componentType":5126,
			"count":1992,
			"type":"VEC3"
		},
		{
			"bufferView":23,
			"componentType":5126,
			"count":1992,
			"type":"VEC2"
		},
		{
			"bufferView":24,
			"componentType":5126,
			"count":1992,
			"type":"VEC2"
		},
		{
			"bufferView":25,
			"componentType":5126,
			"count":1992,
			"type":"VEC2"
		},
		{
			"bufferView":26,
			"componentType":5126,
			"count":1992,
			"type":"VEC2"
		},
		{
			"bufferView":27,
			"componentType":5123,
			"count":6930,
			"type":"SCALAR"
		},
		{
			"bufferView":28,
			"componentType":5126,
			"count":368,
			"max":[
				0.23582884669303894,
				0.09666072577238083,
				0.005734349600970745
			],
			"min":[
				-0.005734345410019159,
				-1.909462632454506e-08,
				-0.005734349600970745
			],
			"type":"VEC3"
		},
		{
			"bufferView":29,
			"componentType":5126,
			"count":368,
			"type":"VEC3"
		},
		{
			"bufferView":30,
			"componentType":5126,
			"count":368,
			"type":"VEC2"
		},
		{
			"bufferView":31,
			"componentType":5126,
			"count":368,
			"type":"VEC2"
		},
		{
			"bufferView":32,
			"componentType":5126,
			"count":368,
			"type":"VEC2"
		},
		{
			"bufferView":33,
			"componentType":5126,
			"count":368,
			"type":"VEC2"
		},
		{
			"bufferView":34,
			"componentType":5123,
			"count":1398,
			"type":"SCALAR"
		},
		{
			"bufferView":35,
			"componentType":5126,
			"count":22,
			"max":[
				0.29886507987976074,
				0.2018478810787201,
				0.09000003337860107
			],
			"min":[
				-0.29886507987976074,
				-0.2018478810787201,
				0.09000003337860107
			],
			"type":"VEC3"
		},
		{
			"bufferView":36,
			"componentType":5126,
			"count":22,
			"type":"VEC3"
		},
		{
			"bufferView":37,
			"componentType":5126,
			"count":22,
			"type":"VEC2"
		},
		{
			"bufferView":38,
			"componentType":5123,
			"count":60,
			"type":"SCALAR"
		}
	],
	"bufferViews":[
		{
			"buffer":0,
			"byteLength":126972,
			"byteOffset":0,
			"target":34962
		},
		{
			"buffer":0,
			"byteLength":126972,
			"byteOffset":126972,
			"target":34962
		},
		{
			"buffer":0,
			"byteLength":84648,
			"byteOffset":253944,
			"target":34962
		},
		{
			"buffer":0,
			"byteLength":84648,
			"byteOffset":338592,
			"target":34962
		},
		{
			"buffer":0,
			"byteLength":84648,
			"byteOffset":423240,
			"target":34962
		},
		{
			"buffer":0,
			"byteLength":84648,
			"byteOffset":507888,
			"target":34962
		},
		{
			"buffer":0,
			"byteLength":42984,
			"byteOffset":592536,
			"target":34963
		},
		{
			"buffer":0,
			"byteLength":30168,
			"byteOffset":635520,
			"target":34962
		},
		{
			"buffer":0,
			"byteLength":30168,
			"byteOffset":665688,
			"target":34962
		},
		{
			"buffer":0,
			"byteLength":20112,
			"byteOffset":695856,
			"target":34962
		},
		{
			"buffer":0,
			"byteLength":20112,
			"byteOffset":715968,
			"target":34962
		},
		{
			"buffer":0,
			"byteLength":20112,
			"byteOffset":736080,
			"target":34962
		},
		{
			"buffer":0,
			"byteLength":20112,
			"byteOffset":756192,
			"target":34962
		},
		{
			"buffer":0,
			"byteLength":20256,
			"byteOffset":776304,
			"target":34963
		},
		{
			"buffer":0,
			"byteLength":66384,
			"byteOffset":796560,
			"target":34962
		},
		{
			"buffer":0,
			"byteLength":66384,
			"byteOffset":862944,
			"target":34962
		},
		{
			"buffer":0,
			"byteLength":44256,
			"byteOffset":929328,
			"target":34962
		},
		{
			"buffer":0,
			"byteLength":44256,
			"byteOffset":973584,
			"target":34962
		},
		{
			"buffer":0,
			"byteLength":44256,
			"byteOffset":1017840,
			"target":34962
		},
		{
			"buffer":0,
			"byteLength":44256,
			"byteOffset":1062096,
			"target":34962
		},
		{
			"buffer":0,
			"byteLength":30888,
			"byteOffset":1106352,
			"target":34963
		},
		{
			"buffer":0,
			"byteLength":23904,
			"byteOffset":1137240,
			"target":34962
		},
		{
			"buffer":0,
			"byteLength":23904,
			"byteOffset":1161144,
			"target":34962
		},
		{
			"buffer":0,
			"byteLength":15936,
			"byteOffset":1185048,
			"target":34962
		},
		{
			"buffer":0,
			"byteLength":15936,
			"byteOffset":1200984,
			"target":34962
		},
		{
			"buffer":0,
			"byteLength":15936,
			"byteOffset":1216920,
			"target":34962
		},
		{
			"buffer":0,
			"byteLength":15936,
			"byteOffset":1232856,
			"target":34962
		},
		{
			"buffer":0,
			"byteLength":13860,
			"byteOffset":1248792,
			"target":34963
		},
		{
			"buffer":0,
			"byteLength":4416,
			"byteOffset":1262652,
			"target":34962
		},
		{
			"buffer":0,
			"byteLength":4416,
			"byteOffset":1267068,
			"target":34962
		},
		{
			"buffer":0,
			"byteLength":2944,
			"byteOffset":1271484,
			"target":34962
		},
		{
			"buffer":0,
			"byteLength":2944,
			"byteOffset":1274428,
			"target":34962
		},
		{
			"buffer":0,
			"byteLength":2944,
			"byteOffset":1277372,
			"target":34962
		},
		{
			"buffer":0,
			"byteLength":2944,
			"byteOffset":1280316,
			"target":34962
		},
		{
			"buffer":0,
			"byteLength":2796,
			"byteOffset":1283260,
			"target":34963
		},
		{
			"buffer":0,
			"byteLength":264,
			"byteOffset":1286056,
			"target":34962
		},
		{
			"buffer":0,
			"byteLength":264,
			"byteOffset":1286320,
			"target":34962
		},
		{
			"buffer":0,
			"byteLength":176,
			"byteOffset":1286584,
			"target":34962
		},
		{
			"buffer":0,
			"byteLength":120,
			"byteOffset":1286760,
			"target":34963
		}
	],
	"samplers":[
		{
			"magFilter":9729,
			"minFilter":9987
		}
	],
	"buffers":[
		{
			"byteLength":1286880,
			"uri":"Untitled.bin"
		}
	]
}
